<svg width="24" height="24" viewBox="0 0 24 24" fill="none" xmlns="http://www.w3.org/2000/svg">
<path d="M12.75 14.425H12.25V14.925V17.65H11.75V14.925V14.425H11.25H8.5V13.925H11.25H11.75V13.425V10.675H12.25V13.425V13.925H12.75H15.5V14.425H12.75ZM14.275 7.65V3.5V3H13.775H5.5H5V3.5V8.15V20.5V21H5.5H18.5H19V20.5V8.15V7.65H18.5H14.275ZM18.5 21.5H5.5C5.24128 21.5 5.0161 21.409 4.80355 21.1964C4.59101 20.9839 4.5 20.7587 4.5 20.5V3.5C4.5 3.24128 4.59101 3.0161 4.80355 2.80355C5.0161 2.59101 5.24128 2.5 5.5 2.5H14.3179L19.5 7.68211V20.5C19.5 20.7587 19.409 20.9839 19.1964 21.1964C18.9839 21.409 18.7587 21.5 18.5 21.5Z" fill="black" stroke="#1B1C1E"/>
</svg>
